<svg xmlns="http://www.w3.org/2000/svg" viewBox="0 0 1120 360" width="100%" font-family="Inter, Arial, sans-serif" role="img" aria-label="Popular stablecoins at a glance: USDT, USDC, DAI and USDe by type, issuer and primary use">
  <defs><linearGradient id="w3bg" x1="0" y1="0" x2="0" y2="1"><stop offset="0%" stop-color="#0f1a2b"/><stop offset="100%" stop-color="#0b1424"/></linearGradient></defs>
  <rect x="1" y="1" width="1118" height="358" rx="16" fill="url(#w3bg)" stroke="#1e3048"/>
  <text x="32" y="46" font-size="13" font-weight="700" letter-spacing="2" fill="#8a94a6" font-family="JetBrains Mono, monospace">POPULAR STABLECOINS AT A GLANCE</text>
  <g font-size="12" fill="#6b7688" font-family="JetBrains Mono, monospace">
    <text x="230" y="86">TYPE</text><text x="500" y="86">ISSUER</text><text x="760" y="86">PRIMARY USE</text>
  </g>
  <line x1="32" y1="98" x2="1088" y2="98" stroke="#1e3048"/>
  <g font-size="14.5">
    <g transform="translate(0 106)">
      <circle cx="56" cy="30" r="16" fill="#26a17b"/><text x="56" y="35" font-size="12" font-weight="800" text-anchor="middle" fill="#fff">T</text>
      <text x="82" y="35" font-size="16" font-weight="700" fill="#e6ebf5">USDT</text>
      <text x="230" y="35" fill="#16c784">Fiat-backed</text><text x="500" y="35" fill="#c7cfdd">Tether</text><text x="760" y="35" fill="#c7cfdd">Trading and global liquidity</text>
    </g>
    <line x1="32" y1="160" x2="1088" y2="160" stroke="#12203a"/>
    <g transform="translate(0 164)">
      <circle cx="56" cy="30" r="16" fill="#2775ca"/><text x="56" y="35" font-size="11" font-weight="800" text-anchor="middle" fill="#fff">$</text>
      <text x="82" y="35" font-size="16" font-weight="700" fill="#e6ebf5">USDC</text>
      <text x="230" y="35" fill="#16c784">Fiat-backed</text><text x="500" y="35" fill="#c7cfdd">Circle</text><text x="760" y="35" fill="#c7cfdd">Payments and institutional use</text>
    </g>
    <line x1="32" y1="218" x2="1088" y2="218" stroke="#12203a"/>
    <g transform="translate(0 222)">
      <circle cx="56" cy="30" r="16" fill="#f5ac37"/><text x="56" y="36" font-size="14" font-weight="800" text-anchor="middle" fill="#1b1b1b">D</text>
      <text x="82" y="35" font-size="16" font-weight="700" fill="#e6ebf5">DAI</text>
      <text x="230" y="35" fill="#3b82f6">Crypto-backed</text><text x="500" y="35" fill="#c7cfdd">Sky Ecosystem</text><text x="760" y="35" fill="#c7cfdd">Decentralized finance</text>
    </g>
    <line x1="32" y1="276" x2="1088" y2="276" stroke="#12203a"/>
    <g transform="translate(0 280)">
      <circle cx="56" cy="30" r="16" fill="#111827" stroke="#3b82f6" stroke-width="1.5"/><text x="56" y="35" font-size="12" font-weight="800" text-anchor="middle" fill="#3b82f6">e</text>
      <text x="82" y="35" font-size="16" font-weight="700" fill="#e6ebf5">USDe</text>
      <text x="230" y="35" fill="#a855f7">Synthetic</text><text x="500" y="35" fill="#c7cfdd">Ethena</text><text x="760" y="35" fill="#c7cfdd">Yield strategies</text>
    </g>
  </g>
  <text x="32" y="344" font-size="11.5" fill="#6b7688">Educational overview only. No market capitalization, circulating supply or live pricing.</text>
</svg>
