<svg xmlns="http://www.w3.org/2000/svg" viewBox="0 0 1200 630" width="1200" height="630" role="img" aria-label="Stablecoins">
  <defs>
    <radialGradient id="glow-c17" cx="50%" cy="44%" r="52%">
      <stop offset="0%" stop-color="#3b82f6" stop-opacity="0.26"/>
      <stop offset="55%" stop-color="#3b82f6" stop-opacity="0.05"/>
      <stop offset="100%" stop-color="#3b82f6" stop-opacity="0"/>
    </radialGradient>
    <linearGradient id="bg-c17" x1="0" y1="0" x2="0" y2="1"><stop offset="0%" stop-color="#0d1626"/><stop offset="100%" stop-color="#080c16"/></linearGradient>
  </defs>
  <rect width="1200" height="630" fill="url(#bg-c17)"/>
  <g stroke="#1e3048" stroke-width="1" opacity=".4"><path d="M0 105h1200M0 210h1200M0 315h1200M0 420h1200M0 525h1200M200 0v630M400 0v630M600 0v630M800 0v630M1000 0v630"/></g>
  <rect width="1200" height="630" fill="url(#glow-c17)"/>
  <svg x="470" y="158" width="260" height="260" viewBox="0 0 128 128" preserveAspectRatio="xMidYMid meet" overflow="visible"><defs>
    <linearGradient id="scoin-c17" x1="0" y1="0" x2="1" y2="1"><stop offset="0%" stop-color="#5eead4"/><stop offset="45%" stop-color="#3b82f6"/><stop offset="100%" stop-color="#1e3a8a"/></linearGradient>
    <linearGradient id="srim-c17" x1="0" y1="0" x2="1" y2="1"><stop offset="0%" stop-color="#a7f3d0"/><stop offset="100%" stop-color="#1d4ed8"/></linearGradient>
    <radialGradient id="sshade-c17" cx="38%" cy="32%" r="75%"><stop offset="0%" stop-color="#ffffff" stop-opacity="0.30"/><stop offset="60%" stop-color="#ffffff" stop-opacity="0"/></radialGradient>
  </defs>
  <circle cx="64" cy="64" r="60" fill="url(#srim-c17)"/>
  <circle cx="64" cy="64" r="53" fill="url(#scoin-c17)"/>
  <circle cx="64" cy="64" r="53" fill="url(#sshade-c17)"/>
  <circle cx="64" cy="64" r="53" fill="none" stroke="#0b1220" stroke-opacity=".25" stroke-width="1.5"/>
  <text x="64" y="88" font-family="Inter, Arial, sans-serif" font-size="74" font-weight="800" text-anchor="middle" fill="#f8fafc">$</text></svg>
  <text x="600" y="452" font-family="JetBrains Mono, monospace" font-size="30" font-weight="700" letter-spacing="9" text-anchor="middle" fill="#e6ebf5">STABLECOINS</text>
  
</svg>