<svg xmlns="http://www.w3.org/2000/svg" viewBox="0 0 1200 630" width="1200" height="630" role="img" aria-label="Open Interest">
  <defs>
    <radialGradient id="glow-c17" cx="50%" cy="44%" r="52%">
      <stop offset="0%" stop-color="#22d3ee" stop-opacity="0.26"/>
      <stop offset="55%" stop-color="#22d3ee" stop-opacity="0.05"/>
      <stop offset="100%" stop-color="#22d3ee" stop-opacity="0"/>
    </radialGradient>
    <linearGradient id="bg-c17" x1="0" y1="0" x2="0" y2="1"><stop offset="0%" stop-color="#0d1626"/><stop offset="100%" stop-color="#080c16"/></linearGradient>
  </defs>
  <rect width="1200" height="630" fill="url(#bg-c17)"/>
  <g stroke="#1e3048" stroke-width="1" opacity=".4"><path d="M0 105h1200M0 210h1200M0 315h1200M0 420h1200M0 525h1200M200 0v630M400 0v630M600 0v630M800 0v630M1000 0v630"/></g>
  <rect width="1200" height="630" fill="url(#glow-c17)"/>
  <svg x="470" y="158" width="260" height="260" viewBox="0 0 128 128" preserveAspectRatio="xMidYMid meet" overflow="visible"><defs>
    <linearGradient id="oiBar-c17" x1="0" y1="1" x2="0" y2="0"><stop offset="0%" stop-color="#0891b2"/><stop offset="100%" stop-color="#22d3ee"/></linearGradient>
    <linearGradient id="oiTile-c17" x1="0" y1="0" x2="1" y2="1"><stop offset="0%" stop-color="#0e2233"/><stop offset="100%" stop-color="#0a1622"/></linearGradient>
  </defs>
  <rect x="8" y="8" width="112" height="112" rx="24" fill="url(#oiTile-c17)" stroke="#22d3ee" stroke-opacity=".35" stroke-width="2"/>
  <g>
    <rect x="28" y="74" width="15" height="26" rx="3" fill="url(#oiBar-c17)" opacity=".85"/>
    <rect x="49" y="58" width="15" height="42" rx="3" fill="url(#oiBar-c17)" opacity=".9"/>
    <rect x="70" y="42" width="15" height="58" rx="3" fill="url(#oiBar-c17)"/>
    <rect x="91" y="30" width="6" height="70" rx="3" fill="#22d3ee" opacity=".55"/>
  </g>
  <path d="M30 62 L56 48 L78 34 L98 24" fill="none" stroke="#e6ebf5" stroke-width="3" stroke-linecap="round" stroke-linejoin="round" opacity=".9"/>
  <circle cx="98" cy="24" r="5" fill="#e6ebf5"/></svg>
  <text x="600" y="452" font-family="JetBrains Mono, monospace" font-size="30" font-weight="700" letter-spacing="9" text-anchor="middle" fill="#e6ebf5">OPEN INTEREST</text>
  
</svg>